<svg width="186" height="90" viewBox="0 0 186 90" fill="none" xmlns="http://www.w3.org/2000/svg">
<g id="Layer_1" clip-path="url(#clip0_2640_3190)">
<path id="Vector" d="M155.07 1.3846C155.1 0.154997 155.958 -0.328159 157.267 0.233713C160.079 1.43889 162.872 2.68749 165.67 3.92524C170.073 5.87144 174.476 7.82035 178.876 9.77468C180.903 10.6759 180.986 11.596 179.163 12.9016C172.752 17.4916 166.344 22.087 159.903 26.639C159.378 27.0109 158.464 27.3664 158.001 27.1466C157.535 26.9267 157.224 26.0038 157.165 25.3578C156.458 17.5947 155.812 9.82354 155.149 2.05776C155.13 1.83247 155.094 1.60989 155.067 1.38732L155.07 1.3846Z" fill="#CE4A27"/>
<path id="Vector_2" d="M134.217 39.8872C133.286 39.5913 133.11 38.8259 133.827 37.9491C135.369 36.0654 136.939 34.2006 138.5 32.3331C140.96 29.3935 143.42 26.4538 145.885 23.5196C147.022 22.1679 147.739 22.3063 148.329 23.9946C150.399 29.9228 152.475 35.8509 154.51 41.7927C154.675 42.2785 154.742 43.0576 154.475 43.3616C154.204 43.6683 153.433 43.7036 152.927 43.6059C146.86 42.4224 140.803 41.1928 134.744 39.9768C134.568 39.9415 134.393 39.9198 134.217 39.8899V39.8872Z" fill="#3282C4"/>
<path id="Vector_3" d="M156.212 58.7627C154.805 58.8116 154.199 57.8833 154.759 56.3877C155.96 53.1766 157.211 49.9845 158.447 46.787C160.396 41.7545 162.344 36.7248 164.301 31.6978C165.202 29.3825 166.246 29.2278 167.854 31.1767C173.496 38.025 179.146 44.8652 184.743 51.7461C185.2 52.308 185.663 53.3041 185.443 53.8307C185.222 54.3627 184.185 54.7699 183.454 54.8785C174.633 56.1651 165.803 57.3865 156.975 58.627C156.721 58.6623 156.466 58.7166 156.215 58.76H156.212V58.7627Z" fill="#6AAA43"/>
<g id="Group 1">
<path id="Vector_4" d="M0.5 67.3749L9.0134 43.3447H14.3958L22.6278 67.3749H17.9841L11.0538 46.5205H12.3906L5.14367 67.3749H0.5ZM5.49547 58.2357H17.3157V62.5407H5.49547V58.2357Z" fill="#151515"/>
<path id="Vector_5" d="M30.5431 67.8338C29.2306 67.8338 27.9804 67.5623 26.7979 67.0222C25.6126 66.482 24.5653 65.5401 23.6479 64.1992L26.4623 61.7292C27.2119 62.576 27.9344 63.1814 28.6245 63.5451C29.3172 63.9088 30.0966 64.0934 30.9653 64.0934C31.5525 64.0934 32.0206 63.9522 32.3724 63.6699C32.7242 63.3876 32.9001 63.0348 32.9001 62.6113C32.9001 62.329 32.8054 62.0766 32.6187 61.854C32.432 61.6315 32.0856 61.4143 31.5822 61.1999C31.0789 60.9882 30.3456 60.7656 29.3849 60.5294C27.6016 60.0598 26.2648 59.4165 25.3744 58.6077C24.4841 57.7961 24.0376 56.6506 24.0376 55.1659C24.0376 54.1561 24.2947 53.2305 24.8116 52.3972C25.3284 51.5612 26.0726 50.8962 27.0468 50.4022C28.021 49.9081 29.1738 49.6611 30.5106 49.6611C32.0829 49.6611 33.4251 49.9679 34.54 50.5786C35.6549 51.1893 36.5506 51.9303 37.2299 52.8016L34.2396 55.307C33.7931 54.8374 33.2194 54.4248 32.5158 54.072C31.8123 53.7191 30.9923 53.5427 30.0533 53.5427C29.5364 53.5427 29.0791 53.6594 28.6813 53.8955C28.2835 54.1317 28.0833 54.471 28.0833 54.9188C28.0833 55.3423 28.2997 55.6951 28.7327 55.9774C29.1657 56.2597 30.0046 56.5529 31.2467 56.8596C33.3574 57.3536 34.8702 58.0241 35.7848 58.871C36.6995 59.7178 37.1568 60.847 37.1568 62.2585C37.1568 63.3876 36.8646 64.3702 36.2773 65.2036C35.6901 66.0396 34.8999 66.6856 33.9014 67.1443C32.9055 67.603 31.7852 67.8338 30.5404 67.8338H30.5431Z" fill="#151515"/>
<path id="Vector_6" d="M40.0767 74.0799V50.1203H43.5242L44.6852 54.2135H44.3334V62.8588H44.6852V74.0799H40.0767ZM49.2936 67.7989C47.7701 67.7989 46.4441 67.4406 45.3184 66.724C44.1926 66.0074 43.3186 64.9787 42.6962 63.6378C42.0738 62.2969 41.7653 60.6737 41.7653 58.7682C41.7653 56.8627 42.0819 55.3101 42.7151 53.9692C43.3483 52.6283 44.2332 51.5887 45.3725 50.8477C46.5091 50.1067 47.8296 49.7375 49.3288 49.7375C50.828 49.7375 52.2785 50.1203 53.461 50.883C54.6463 51.6485 55.5718 52.7071 56.2402 54.0588C56.9086 55.4133 57.2442 56.9822 57.2442 58.7709C57.2442 60.5597 56.9086 62.0987 56.2402 63.4641C55.5718 64.8294 54.6382 65.8934 53.4448 66.6562C52.2487 67.4216 50.8659 67.8016 49.2936 67.8016V67.7989ZM48.5197 63.5292C49.6914 63.5292 50.6602 63.0895 51.4233 62.2046C52.1865 61.3224 52.568 60.177 52.568 58.7655C52.568 57.354 52.1865 56.2004 51.4233 55.3074C50.6602 54.4144 49.6941 53.9665 48.5197 53.9665C47.3453 53.9665 46.3738 54.4062 45.5998 55.2911C44.8259 56.176 44.4389 57.3323 44.4389 58.7682C44.4389 60.2041 44.8259 61.3251 45.5998 62.2073C46.3738 63.0895 47.348 63.5319 48.5197 63.5319V63.5292Z" fill="#151515"/>
<path id="Vector_7" d="M59.7422 44.7567C59.7422 43.9098 59.9939 43.2203 60.4972 42.6937C61.0005 42.1644 61.6743 41.8984 62.5214 41.8984C63.3684 41.8984 64.0395 42.1644 64.5428 42.6937C65.0462 43.223 65.2978 43.9098 65.2978 44.7567C65.2978 45.5574 65.0462 46.217 64.5428 46.7327C64.0395 47.2512 63.3657 47.509 62.5214 47.509C61.6771 47.509 61.0032 47.2512 60.4972 46.7327C59.9939 46.2143 59.7422 45.5574 59.7422 44.7567ZM64.8432 67.3754H60.2347V50.1202H64.8432V67.3754Z" fill="#151515"/>
<path id="Vector_8" d="M72.3011 50.0081L73.462 54.7718V67.2633H68.8535V50.0081H72.3011ZM72.5122 57.1361L71.6679 56.7479V53.2192L71.9845 52.8311C72.2416 52.4076 72.6339 51.9489 73.1616 51.4549C73.6893 50.9609 74.2982 50.532 74.991 50.1656C75.6837 49.8019 76.4035 49.62 77.1558 49.62C77.532 49.62 77.8703 49.6444 78.176 49.6906C78.4818 49.7367 78.7146 49.8209 78.8796 49.9376V54.1367H77.7539C76.2304 54.1367 75.0559 54.3783 74.236 54.8614C73.416 55.3446 72.8396 56.1019 72.5122 57.1388V57.1361Z" fill="#151515"/>
<path id="AspiraSys" d="M86.7241 67.4331C85.3946 67.4331 84.196 67.0696 83.1283 66.3427C82.0606 65.6158 81.2145 64.6263 80.5901 63.3744C79.9656 62.1225 79.6533 60.6888 79.6533 59.0735C79.6533 57.4581 79.9656 56.0345 80.5901 54.8028C81.2347 53.5509 82.1009 52.5715 83.1887 51.8648C84.2766 51.1379 85.5155 50.7744 86.9054 50.7744C87.6911 50.7744 88.4062 50.8956 89.0509 51.1379C89.7156 51.36 90.2898 51.673 90.7733 52.0768C91.2769 52.4807 91.6999 52.9451 92.0424 53.4701C92.3848 53.9951 92.6266 54.5605 92.7676 55.1662L91.8611 55.0148V51.1076H96.1217V67.1302H91.8006V63.2835L92.7676 63.1927C92.6064 63.7581 92.3445 64.2932 91.9819 64.798C91.6193 65.3028 91.1661 65.7571 90.6222 66.161C90.0984 66.5446 89.5041 66.8576 88.8393 67.0999C88.1746 67.322 87.4695 67.4331 86.7241 67.4331ZM87.9026 63.7076C88.7084 63.7076 89.4135 63.5158 90.0178 63.1321C90.6222 62.7485 91.0855 62.2134 91.4078 61.5268C91.7503 60.8201 91.9215 60.0023 91.9215 59.0735C91.9215 58.1648 91.7503 57.3672 91.4078 56.6807C91.0855 55.9941 90.6222 55.459 90.0178 55.0754C89.4135 54.6715 88.7084 54.4696 87.9026 54.4696C87.117 54.4696 86.422 54.6715 85.8176 55.0754C85.2334 55.459 84.7701 55.9941 84.4276 56.6807C84.0852 57.3672 83.9139 58.1648 83.9139 59.0735C83.9139 60.0023 84.0852 60.8201 84.4276 61.5268C84.7701 62.2134 85.2334 62.7485 85.8176 63.1321C86.422 63.5158 87.117 63.7076 87.9026 63.7076Z" fill="#151515"/>
<path id="Vector_9" d="M106.706 67.94C105.37 67.94 104.103 67.7391 102.907 67.3401C101.711 66.9411 100.639 66.3168 99.6895 65.4699C98.7396 64.6231 97.9359 63.5183 97.2783 62.153L100.937 59.9299C101.665 61.1758 102.52 62.1068 103.505 62.7176C104.49 63.3283 105.627 63.635 106.917 63.635C108.089 63.635 108.98 63.3826 109.591 62.8777C110.2 62.3728 110.506 61.697 110.506 60.8501C110.506 60.3099 110.37 59.8431 110.1 59.4576C109.829 59.0695 109.356 58.6976 108.676 58.3447C107.997 57.9919 107.009 57.6743 105.721 57.392C103.797 56.9224 102.293 56.3334 101.199 55.6277C100.106 54.9219 99.3404 54.0913 98.8966 53.1386C98.4501 52.1859 98.2282 51.1327 98.2282 49.9818C98.2282 48.5948 98.5637 47.376 99.2321 46.3283C99.9005 45.2805 100.856 44.4526 102.098 43.8392C103.34 43.2285 104.818 42.9218 106.53 42.9218C108.501 42.9218 110.154 43.3045 111.491 44.0672C112.828 44.8327 113.918 45.8614 114.762 47.1562L111.104 49.6615C110.446 48.8146 109.702 48.2093 108.871 47.8429C108.038 47.4792 107.188 47.2973 106.322 47.2973C105.196 47.2973 104.336 47.5199 103.738 47.9677C103.14 48.4156 102.839 49.0372 102.839 49.8379C102.839 50.5437 103.137 51.149 103.738 51.6566C104.336 52.1614 105.502 52.6283 107.237 53.049C109.207 53.5213 110.776 54.0968 111.951 54.7781C113.123 55.4594 113.961 56.2845 114.465 57.2481C114.968 58.2117 115.22 59.3762 115.22 60.7415C115.22 62.1068 114.873 63.331 114.183 64.4113C113.491 65.4944 112.506 66.3521 111.228 66.9873C109.951 67.6224 108.444 67.94 106.706 67.94Z" fill="#151515"/>
<path id="Vector_10" d="M122.432 65.7875L115.572 50.1202H120.286L126.653 64.6936L122.432 65.7875ZM118.492 74.0799L129.01 50.1202H133.724L123.206 74.0799H118.492Z" fill="#151515"/>
<path id="Vector_11" d="M141.041 67.8338C139.729 67.8338 138.479 67.5623 137.296 67.0222C136.111 66.482 135.064 65.5401 134.149 64.1992L136.963 61.7292C137.713 62.576 138.435 63.1814 139.128 63.5451C139.821 63.9088 140.6 64.0934 141.469 64.0934C142.056 64.0934 142.524 63.9522 142.876 63.6699C143.228 63.3876 143.404 63.0348 143.404 62.6113C143.404 62.329 143.309 62.0766 143.122 61.854C142.936 61.6315 142.589 61.4143 142.086 61.1999C141.583 60.9882 140.849 60.7656 139.889 60.5294C138.105 60.0598 136.768 59.4165 135.878 58.6077C134.988 57.7961 134.541 56.6506 134.541 55.1659C134.541 54.1561 134.798 53.2305 135.315 52.3972C135.832 51.5612 136.576 50.8962 137.548 50.4022C138.519 49.9081 139.677 49.6611 141.012 49.6611C142.584 49.6611 143.926 49.9679 145.038 50.5786C146.153 51.1893 147.049 51.9303 147.731 52.8016L144.741 55.307C144.294 54.8374 143.72 54.4248 143.017 54.072C142.313 53.7191 141.493 53.5427 140.554 53.5427C140.037 53.5427 139.58 53.6594 139.182 53.8955C138.784 54.1317 138.584 54.471 138.584 54.9188C138.584 55.3423 138.801 55.6951 139.236 55.9774C139.669 56.2597 140.508 56.5529 141.75 56.8596C143.861 57.3536 145.374 58.0241 146.288 58.871C147.203 59.7178 147.66 60.847 147.66 62.2585C147.66 63.3876 147.368 64.3702 146.781 65.2036C146.194 66.0396 145.404 66.6856 144.405 67.1443C143.409 67.603 142.289 67.8338 141.044 67.8338H141.041Z" fill="#151515"/>
</g>
</g>
<defs>
<clipPath id="clip0_2640_3190">
<rect width="185" height="90" fill="white" transform="translate(0.5)"/>
</clipPath>
</defs>
</svg>
