<svg width="146" height="60" viewBox="0 0 146 60" fill="none" xmlns="http://www.w3.org/2000/svg">
<g id="Layer_1">
<path id="Vector" d="M121.985 1.08503C122.008 0.121215 122.685 -0.257501 123.719 0.182916C125.938 1.12758 128.142 2.10629 130.35 3.07648C133.824 4.60199 137.299 6.12962 140.772 7.66151C142.371 8.36788 142.437 9.08915 140.998 10.1125C135.939 13.7103 130.882 17.3124 125.799 20.8804C125.384 21.1719 124.663 21.4506 124.297 21.2783C123.93 21.106 123.685 20.3826 123.638 19.8762C123.08 13.7912 122.57 7.69981 122.046 1.61268C122.032 1.43609 122.004 1.26162 121.982 1.08716L121.985 1.08503Z" fill="#CE4A27"/>
<path id="Vector_2" d="M105.528 31.2653C104.793 31.0334 104.654 30.4334 105.22 29.7462C106.438 28.2696 107.676 26.808 108.909 25.3442C110.85 23.04 112.791 20.7357 114.737 18.4358C115.634 17.3762 116.2 17.4847 116.665 18.8081C118.299 23.4548 119.937 28.1016 121.543 32.7589C121.673 33.1398 121.727 33.7504 121.515 33.9887C121.302 34.2291 120.693 34.2568 120.294 34.1802C115.506 33.2525 110.726 32.2887 105.944 31.3356C105.805 31.3079 105.667 31.2909 105.528 31.2675V31.2653Z" fill="#3282C4"/>
<path id="Vector_3" d="M122.886 46.061C121.776 46.0993 121.298 45.3716 121.74 44.1993C122.688 41.6823 123.675 39.1802 124.651 36.6739C126.188 32.7293 127.726 28.7868 129.27 24.8464C129.981 23.0316 130.805 22.9103 132.074 24.4379C136.527 29.8059 140.986 35.1675 145.402 40.561C145.763 41.0015 146.129 41.7823 145.956 42.1951C145.78 42.6121 144.962 42.9312 144.386 43.0163C137.424 44.0248 130.455 44.9822 123.489 45.9546C123.288 45.9822 123.087 46.0248 122.889 46.0588H122.886V46.061Z" fill="#6AAA43"/>
<g id="Group 1">
<path id="Vector_4" d="M0 52.8119L6.71868 33.9761H10.9664L17.463 52.8119H13.7983L8.32894 36.4654H9.38394L3.66474 52.8119H0ZM3.94237 45.6482H13.2708V49.0226H3.94237V45.6482Z" fill="white"/>
<path id="Vector_5" d="M23.7101 53.1714C22.6744 53.1714 21.6877 52.9587 20.7544 52.5353C19.819 52.1119 18.9925 51.3736 18.2686 50.3226L20.4896 48.3864C21.0812 49.0502 21.6514 49.5247 22.196 49.8098C22.7427 50.0949 23.3578 50.2396 24.0433 50.2396C24.5067 50.2396 24.8762 50.1289 25.1538 49.9077C25.4314 49.6864 25.5703 49.4098 25.5703 49.0779C25.5703 48.8566 25.4955 48.6588 25.3482 48.4843C25.2008 48.3098 24.9274 48.1396 24.5302 47.9715C24.133 47.8056 23.5542 47.6311 22.7961 47.446C21.3887 47.0779 20.3337 46.5737 19.6311 45.9396C18.9285 45.3035 18.5761 44.4056 18.5761 43.2418C18.5761 42.4503 18.779 41.7248 19.1869 41.0716C19.5948 40.4163 20.1821 39.8951 20.9509 39.5078C21.7197 39.1206 22.6295 38.927 23.6845 38.927C24.9253 38.927 25.9846 39.1674 26.8645 39.6461C27.7443 40.1249 28.4512 40.7057 28.9873 41.3887L26.6274 43.3525C26.275 42.9844 25.8223 42.661 25.267 42.3844C24.7117 42.1078 24.0646 41.9695 23.3236 41.9695C22.9157 41.9695 22.5548 42.061 22.2408 42.2461C21.9269 42.4312 21.7688 42.6971 21.7688 43.0482C21.7688 43.3801 21.9397 43.6567 22.2814 43.878C22.6231 44.0993 23.2851 44.329 24.2654 44.5695C25.9312 44.9567 27.125 45.4822 27.8468 46.146C28.5687 46.8098 28.9296 47.6949 28.9296 48.8013C28.9296 49.6864 28.699 50.4566 28.2355 51.1098C27.7721 51.7651 27.1485 52.2715 26.3604 52.631C25.5745 52.9906 24.6904 53.1714 23.708 53.1714H23.7101Z" fill="white"/>
<path id="Vector_6" d="M31.2334 58.0671V39.2866H33.9542L34.8704 42.495H34.5927V49.2715H34.8704V58.0671H31.2334ZM38.5073 53.1438C37.305 53.1438 36.2585 52.8629 35.3701 52.3012C34.4817 51.7395 33.7919 50.9332 33.3007 49.8821C32.8095 48.8311 32.566 47.5588 32.566 46.0652C32.566 44.5716 32.8159 43.3546 33.3156 42.3035C33.8154 41.2525 34.5137 40.4376 35.4128 39.8568C36.3098 39.2759 37.352 38.9866 38.5351 38.9866C39.7182 38.9866 40.8629 39.2866 41.7962 39.8844C42.7316 40.4844 43.462 41.3142 43.9895 42.3737C44.517 43.4354 44.7818 44.6652 44.7818 46.0673C44.7818 47.4694 44.517 48.6758 43.9895 49.746C43.462 50.8162 42.7252 51.6502 41.7834 52.248C40.8394 52.848 39.7481 53.1459 38.5073 53.1459V53.1438ZM37.8966 49.797C38.8213 49.797 39.5858 49.4523 40.1881 48.7587C40.7903 48.0673 41.0915 47.1694 41.0915 46.063C41.0915 44.9567 40.7903 44.0524 40.1881 43.3525C39.5858 42.6525 38.8234 42.3014 37.8966 42.3014C36.9697 42.3014 36.203 42.6461 35.5922 43.3397C34.9814 44.0333 34.676 44.9397 34.676 46.0652C34.676 47.1907 34.9814 48.0694 35.5922 48.7609C36.203 49.4523 36.9718 49.7992 37.8966 49.7992V49.797Z" fill="white"/>
<path id="Vector_7" d="M46.7529 35.0824C46.7529 34.4186 46.9515 33.8782 47.3488 33.4654C47.746 33.0505 48.2778 32.842 48.9462 32.842C49.6147 32.842 50.1443 33.0505 50.5415 33.4654C50.9388 33.8803 51.1374 34.4186 51.1374 35.0824C51.1374 35.7101 50.9388 36.2271 50.5415 36.6313C50.1443 37.0377 49.6125 37.2398 48.9462 37.2398C48.2799 37.2398 47.7481 37.0377 47.3488 36.6313C46.9515 36.225 46.7529 35.7101 46.7529 35.0824ZM50.7786 52.8119H47.1416V39.2866H50.7786V52.8119Z" fill="white"/>
<path id="Vector_8" d="M56.6641 39.1985L57.5803 42.9325V52.7238H53.9434V39.1985H56.6641ZM56.8307 44.7857L56.1644 44.4814V41.7155L56.4143 41.4113C56.6172 41.0794 56.9268 40.7198 57.3433 40.3326C57.7597 39.9453 58.2402 39.6092 58.787 39.3219C59.3337 39.0368 59.9018 38.8943 60.4955 38.8943C60.7923 38.8943 61.0593 38.9134 61.3006 38.9496C61.5419 38.9858 61.7256 39.0517 61.8559 39.1432V42.4347H60.9674C59.7651 42.4347 58.8382 42.624 58.1911 43.0027C57.544 43.3814 57.0891 43.9751 56.8307 44.7878V44.7857Z" fill="white"/>
<path id="AspiraSys" d="M68.047 52.8568C66.9977 52.8568 66.0518 52.5719 65.2092 52.0021C64.3666 51.4323 63.6989 50.6568 63.2061 49.6755C62.7132 48.6941 62.4668 47.5704 62.4668 46.3042C62.4668 45.038 62.7132 43.9221 63.2061 42.9567C63.7148 41.9754 64.3984 41.2077 65.2569 40.6538C66.1154 40.084 67.0931 39.7991 68.1901 39.7991C68.8101 39.7991 69.3745 39.894 69.8832 40.084C70.4079 40.2581 70.861 40.5034 71.2425 40.8199C71.64 41.1365 71.9738 41.5005 72.2441 41.912C72.5144 42.3236 72.7051 42.7667 72.8164 43.2416L72.101 43.1229V40.0602H75.4635V52.6194H72.0533V49.6042L72.8164 49.533C72.6892 49.9762 72.4826 50.3956 72.1964 50.7913C71.9102 51.187 71.5525 51.5431 71.1233 51.8597C70.7099 52.1604 70.2409 52.4057 69.7163 52.5956C69.1917 52.7697 68.6352 52.8568 68.047 52.8568ZM68.9771 49.9366C69.613 49.9366 70.1694 49.7862 70.6463 49.4855C71.1233 49.1848 71.4889 48.7654 71.7433 48.2272C72.0136 47.6733 72.1487 47.0323 72.1487 46.3042C72.1487 45.592 72.0136 44.9668 71.7433 44.4286C71.4889 43.8905 71.1233 43.4711 70.6463 43.1703C70.1694 42.8538 69.613 42.6955 68.9771 42.6955C68.357 42.6955 67.8085 42.8538 67.3316 43.1703C66.8706 43.4711 66.5049 43.8905 66.2346 44.4286C65.9644 44.9668 65.8292 45.592 65.8292 46.3042C65.8292 47.0323 65.9644 47.6733 66.2346 48.2272C66.5049 48.7654 66.8706 49.1848 67.3316 49.4855C67.8085 49.7862 68.357 49.9366 68.9771 49.9366Z" fill="white"/>
<path id="Vector_9" d="M83.8165 53.2546C82.7615 53.2546 81.762 53.0971 80.8181 52.7844C79.8741 52.4716 79.0284 51.9823 78.2788 51.3185C77.5292 50.6546 76.8949 49.7887 76.376 48.7185L79.2633 46.976C79.8378 47.9525 80.5127 48.6823 81.2901 49.161C82.0674 49.6398 82.9644 49.8802 83.9831 49.8802C84.9078 49.8802 85.6104 49.6823 86.0931 49.2866C86.5736 48.8908 86.8149 48.3611 86.8149 47.6972C86.8149 47.2738 86.7081 46.9079 86.4946 46.6058C86.281 46.3015 85.9073 46.01 85.3712 45.7334C84.8352 45.4568 84.0557 45.2079 83.0391 44.9866C81.5207 44.6186 80.3333 44.1569 79.4705 43.6037C78.6077 43.0505 78.0033 42.3995 77.6531 41.6527C77.3007 40.9059 77.1256 40.0803 77.1256 39.1782C77.1256 38.091 77.3904 37.1357 77.9179 36.3145C78.4454 35.4932 79.1993 34.8443 80.1795 34.3634C81.1598 33.8847 82.3258 33.6443 83.6777 33.6443C85.2324 33.6443 86.5373 33.9443 87.5923 34.5421C88.6473 35.1421 89.5079 35.9485 90.1743 36.9634L87.2869 38.9272C86.7679 38.2634 86.1806 37.7889 85.525 37.5017C84.8672 37.2166 84.1966 37.074 83.5132 37.074C82.6248 37.074 81.9457 37.2485 81.4737 37.5995C81.0017 37.9506 80.7647 38.4378 80.7647 39.0655C80.7647 39.6187 80.9996 40.0931 81.4737 40.491C81.9457 40.8867 82.8661 41.2527 84.2351 41.5824C85.7898 41.9527 87.0285 42.4037 87.9553 42.9377C88.8801 43.4718 89.5421 44.1186 89.9393 44.8739C90.3366 45.6292 90.5352 46.5419 90.5352 47.6121C90.5352 48.6823 90.2618 49.6419 89.7172 50.4887C89.1705 51.3376 88.3931 52.0099 87.3851 52.5078C86.3771 53.0057 85.1876 53.2546 83.8165 53.2546Z" fill="white"/>
<path id="Vector_10" d="M96.2273 51.5673L90.8135 39.2866H94.5337L99.5589 50.7098L96.2273 51.5673ZM93.1178 58.0672L101.419 39.2866H105.139L96.8381 58.0672H93.1178Z" fill="white"/>
<path id="Vector_11" d="M110.914 53.1714C109.878 53.1714 108.892 52.9587 107.958 52.5353C107.023 52.1119 106.196 51.3736 105.475 50.3226L107.696 48.3864C108.287 49.0502 108.857 49.5247 109.404 49.8098C109.951 50.0949 110.566 50.2396 111.251 50.2396C111.715 50.2396 112.084 50.1289 112.362 49.9077C112.64 49.6864 112.778 49.4098 112.778 49.0779C112.778 48.8566 112.704 48.6588 112.556 48.4843C112.409 48.3098 112.136 48.1396 111.738 47.9715C111.341 47.8056 110.762 47.6311 110.004 47.446C108.597 47.0779 107.542 46.5737 106.839 45.9396C106.137 45.3035 105.784 44.4056 105.784 43.2418C105.784 42.4503 105.987 41.7248 106.395 41.0716C106.803 40.4163 107.39 39.8951 108.157 39.5078C108.924 39.1206 109.838 38.927 110.891 38.927C112.131 38.927 113.191 39.1674 114.068 39.6461C114.948 40.1249 115.655 40.7057 116.193 41.3887L113.833 43.3525C113.481 42.9844 113.028 42.661 112.473 42.3844C111.918 42.1078 111.271 41.9695 110.53 41.9695C110.122 41.9695 109.761 42.061 109.447 42.2461C109.133 42.4312 108.975 42.6971 108.975 43.0482C108.975 43.3801 109.146 43.6567 109.49 43.878C109.831 44.0993 110.493 44.329 111.474 44.5695C113.139 44.9567 114.333 45.4822 115.055 46.146C115.777 46.8098 116.138 47.6949 116.138 48.8013C116.138 49.6864 115.907 50.4566 115.444 51.1098C114.98 51.7651 114.357 52.2715 113.569 52.631C112.783 52.9906 111.899 53.1714 110.916 53.1714H110.914Z" fill="white"/>
</g>
</g>
</svg>
